/* XPM */
static char * bullet_selected_xpm[] = {
"14 14 2 1",
" 	c None",
".	c #26B5F8",
"              ",
"              ",
"              ",
"              ",
"      .       ",
"      ..      ",
"      ...     ",
"      ....    ",
"      ...     ",
"      ..      ",
"      .       ",
"              ",
"              ",
"              "};
