/* XPM */
static char * stick_pressed_xpm[] = {
"16 16 4 1",
" 	c None",
".	c #26B5F8",
"+	c #222222",
"@	c #FFFFFF",
"................",
"................",
"++++++++++++++++",
"++++++++++++++++",
"++++++++++++++++",
"++++++++++++++++",
"++++++++++++++++",
"+++++@@@@@@+++++",
"+++++@@@@@@+++++",
"++++++++++++++++",
"++++++++++++++++",
"++++++++++++++++",
"++++++++++++++++",
"++++++++++++++++",
"++++++++++++++++",
"++++++++++++++++"};
